<mxfile host="app.diagrams.net" modified="2023-12-24T11:10:16.893Z" agent="Mozilla/5.0 (Windows NT 10.0; Win64; x64) AppleWebKit/537.36 (KHTML, like Gecko) Chrome/120.0.0.0 Safari/537.36" etag="FyBOroaYfIsSbXDgR_wq" version="22.1.11" type="github">
  <diagram name="第 1 页" id="SemBylmUUA6vfo9OFPBn">
    <mxGraphModel dx="2074" dy="1132" grid="1" gridSize="10" guides="1" tooltips="1" connect="1" arrows="1" fold="1" page="1" pageScale="1" pageWidth="827" pageHeight="1169" math="0" shadow="0">
      <root>
        <mxCell id="0" />
        <mxCell id="1" parent="0" />
        <mxCell id="NeN-vncmFwfR80bRDql_-31" value="" style="rounded=0;whiteSpace=wrap;html=1;" parent="1" vertex="1">
          <mxGeometry x="155" y="80" width="460" height="1060" as="geometry" />
        </mxCell>
        <mxCell id="NeN-vncmFwfR80bRDql_-29" value="" style="rounded=0;whiteSpace=wrap;html=1;fillColor=#e1d5e7;strokeColor=#9673a6;" parent="1" vertex="1">
          <mxGeometry x="250" y="500" width="300" height="110" as="geometry" />
        </mxCell>
        <mxCell id="NeN-vncmFwfR80bRDql_-25" value="" style="rounded=0;whiteSpace=wrap;html=1;fillColor=#dae8fc;strokeColor=#6c8ebf;" parent="1" vertex="1">
          <mxGeometry x="250" y="750" width="190" height="327" as="geometry" />
        </mxCell>
        <mxCell id="NeN-vncmFwfR80bRDql_-17" value="" style="rounded=0;whiteSpace=wrap;html=1;fillColor=#fff2cc;strokeColor=#d6b656;" parent="1" vertex="1">
          <mxGeometry x="414" y="294" width="136" height="206" as="geometry" />
        </mxCell>
        <mxCell id="NeN-vncmFwfR80bRDql_-15" value="" style="rounded=0;whiteSpace=wrap;html=1;fillColor=#b1ddf0;strokeColor=#10739e;" parent="1" vertex="1">
          <mxGeometry x="250" y="332.2" width="270" height="130" as="geometry" />
        </mxCell>
        <mxCell id="NeN-vncmFwfR80bRDql_-1" value="" style="fontColor=#0066CC;verticalAlign=top;verticalLabelPosition=bottom;labelPosition=center;align=center;html=1;outlineConnect=0;fillColor=#CCCCCC;strokeColor=#6881B3;gradientColor=none;gradientDirection=north;strokeWidth=2;shape=mxgraph.networks.pc;" parent="1" vertex="1">
          <mxGeometry x="345" y="140" width="80" height="60" as="geometry" />
        </mxCell>
        <mxCell id="NeN-vncmFwfR80bRDql_-4" value="" style="image;aspect=fixed;perimeter=ellipsePerimeter;html=1;align=center;shadow=0;dashed=0;spacingTop=3;image=img/lib/active_directory/web_server.svg;" parent="1" vertex="1">
          <mxGeometry x="260" y="340" width="30.24" height="37.8" as="geometry" />
        </mxCell>
        <mxCell id="NeN-vncmFwfR80bRDql_-26" style="edgeStyle=orthogonalEdgeStyle;rounded=0;orthogonalLoop=1;jettySize=auto;html=1;entryX=0.5;entryY=0;entryDx=0;entryDy=0;" parent="1" source="NeN-vncmFwfR80bRDql_-5" target="NeN-vncmFwfR80bRDql_-18" edge="1">
          <mxGeometry relative="1" as="geometry" />
        </mxCell>
        <mxCell id="NeN-vncmFwfR80bRDql_-5" value="" style="sketch=0;html=1;dashed=0;whitespace=wrap;fillColor=#2875E2;strokeColor=#ffffff;points=[[0.005,0.63,0],[0.1,0.2,0],[0.9,0.2,0],[0.5,0,0],[0.995,0.63,0],[0.72,0.99,0],[0.5,1,0],[0.28,0.99,0]];verticalLabelPosition=bottom;align=center;verticalAlign=top;shape=mxgraph.kubernetes.icon;prIcon=api" parent="1" vertex="1">
          <mxGeometry x="300" y="360" width="80" height="80" as="geometry" />
        </mxCell>
        <mxCell id="NeN-vncmFwfR80bRDql_-6" value="" style="dashed=0;outlineConnect=0;html=1;align=center;labelPosition=center;verticalLabelPosition=bottom;verticalAlign=top;shape=mxgraph.webicons.html5;gradientColor=#DFDEDE" parent="1" vertex="1">
          <mxGeometry x="414" y="354.4" width="84" height="85.6" as="geometry" />
        </mxCell>
        <mxCell id="NeN-vncmFwfR80bRDql_-13" style="edgeStyle=orthogonalEdgeStyle;rounded=0;orthogonalLoop=1;jettySize=auto;html=1;entryX=0.5;entryY=0;entryDx=0;entryDy=0;" parent="1" source="NeN-vncmFwfR80bRDql_-8" target="NeN-vncmFwfR80bRDql_-9" edge="1">
          <mxGeometry relative="1" as="geometry" />
        </mxCell>
        <mxCell id="NeN-vncmFwfR80bRDql_-8" value="Java Bean" style="ellipse;whiteSpace=wrap;html=1;" parent="1" vertex="1">
          <mxGeometry x="280" y="877" width="120" height="80" as="geometry" />
        </mxCell>
        <mxCell id="NeN-vncmFwfR80bRDql_-14" style="edgeStyle=orthogonalEdgeStyle;rounded=0;orthogonalLoop=1;jettySize=auto;html=1;" parent="1" source="NeN-vncmFwfR80bRDql_-9" target="NeN-vncmFwfR80bRDql_-10" edge="1">
          <mxGeometry relative="1" as="geometry" />
        </mxCell>
        <mxCell id="NeN-vncmFwfR80bRDql_-9" value="Mybatis&lt;br&gt;" style="ellipse;whiteSpace=wrap;html=1;" parent="1" vertex="1">
          <mxGeometry x="280" y="990" width="120" height="80" as="geometry" />
        </mxCell>
        <mxCell id="NeN-vncmFwfR80bRDql_-10" value="" style="sketch=0;outlineConnect=0;fontColor=#232F3E;gradientColor=none;fillColor=#C925D1;strokeColor=none;dashed=0;verticalLabelPosition=bottom;verticalAlign=top;align=center;html=1;fontSize=12;fontStyle=0;aspect=fixed;pointerEvents=1;shape=mxgraph.aws4.rds_sql_server_instance;" parent="1" vertex="1">
          <mxGeometry x="498" y="737" width="78" height="78" as="geometry" />
        </mxCell>
        <mxCell id="NeN-vncmFwfR80bRDql_-11" value="" style="endArrow=classic;startArrow=classic;html=1;rounded=0;" parent="1" edge="1">
          <mxGeometry width="50" height="50" relative="1" as="geometry">
            <mxPoint x="390" y="310" as="sourcePoint" />
            <mxPoint x="390" y="220" as="targetPoint" />
          </mxGeometry>
        </mxCell>
        <mxCell id="NeN-vncmFwfR80bRDql_-27" style="edgeStyle=orthogonalEdgeStyle;rounded=0;orthogonalLoop=1;jettySize=auto;html=1;entryX=0.5;entryY=0;entryDx=0;entryDy=0;" parent="1" source="NeN-vncmFwfR80bRDql_-18" target="NeN-vncmFwfR80bRDql_-20" edge="1">
          <mxGeometry relative="1" as="geometry" />
        </mxCell>
        <mxCell id="NeN-vncmFwfR80bRDql_-18" value="Controller" style="ellipse;whiteSpace=wrap;html=1;" parent="1" vertex="1">
          <mxGeometry x="280" y="520" width="120" height="80" as="geometry" />
        </mxCell>
        <mxCell id="NeN-vncmFwfR80bRDql_-23" style="edgeStyle=orthogonalEdgeStyle;rounded=0;orthogonalLoop=1;jettySize=auto;html=1;entryX=0.5;entryY=0;entryDx=0;entryDy=0;" parent="1" source="NeN-vncmFwfR80bRDql_-20" target="NeN-vncmFwfR80bRDql_-21" edge="1">
          <mxGeometry relative="1" as="geometry" />
        </mxCell>
        <mxCell id="NeN-vncmFwfR80bRDql_-20" value="Service" style="ellipse;whiteSpace=wrap;html=1;" parent="1" vertex="1">
          <mxGeometry x="280" y="650" width="120" height="80" as="geometry" />
        </mxCell>
        <mxCell id="NeN-vncmFwfR80bRDql_-24" style="edgeStyle=orthogonalEdgeStyle;rounded=0;orthogonalLoop=1;jettySize=auto;html=1;entryX=0.5;entryY=0;entryDx=0;entryDy=0;" parent="1" source="NeN-vncmFwfR80bRDql_-21" target="NeN-vncmFwfR80bRDql_-8" edge="1">
          <mxGeometry relative="1" as="geometry" />
        </mxCell>
        <mxCell id="NeN-vncmFwfR80bRDql_-21" value="Dao" style="ellipse;whiteSpace=wrap;html=1;" parent="1" vertex="1">
          <mxGeometry x="280" y="767" width="120" height="80" as="geometry" />
        </mxCell>
        <mxCell id="NeN-vncmFwfR80bRDql_-32" value="MODEL" style="text;html=1;strokeColor=#82b366;fillColor=#d5e8d4;align=center;verticalAlign=middle;whiteSpace=wrap;rounded=0;fontStyle=3" parent="1" vertex="1">
          <mxGeometry x="380" y="750" width="60" height="30" as="geometry" />
        </mxCell>
        <mxCell id="NeN-vncmFwfR80bRDql_-33" style="edgeStyle=orthogonalEdgeStyle;rounded=0;orthogonalLoop=1;jettySize=auto;html=1;exitX=0.5;exitY=1;exitDx=0;exitDy=0;" parent="1" source="NeN-vncmFwfR80bRDql_-32" target="NeN-vncmFwfR80bRDql_-32" edge="1">
          <mxGeometry relative="1" as="geometry" />
        </mxCell>
        <mxCell id="NeN-vncmFwfR80bRDql_-34" value="CONTROLLER" style="text;html=1;strokeColor=#82b366;fillColor=#d5e8d4;align=center;verticalAlign=middle;whiteSpace=wrap;rounded=0;fontStyle=3" parent="1" vertex="1">
          <mxGeometry x="460" y="500" width="90" height="30" as="geometry" />
        </mxCell>
        <mxCell id="NeN-vncmFwfR80bRDql_-35" value="VIEW" style="text;html=1;strokeColor=#82b366;fillColor=#d5e8d4;align=center;verticalAlign=middle;whiteSpace=wrap;rounded=0;fontStyle=3" parent="1" vertex="1">
          <mxGeometry x="490" y="294" width="60" height="30" as="geometry" />
        </mxCell>
        <mxCell id="NeN-vncmFwfR80bRDql_-36" value="Nginx" style="text;html=1;strokeColor=#82b366;fillColor=#d5e8d4;align=center;verticalAlign=middle;whiteSpace=wrap;rounded=0;fontStyle=3" parent="1" vertex="1">
          <mxGeometry x="250" y="432.2" width="60" height="30" as="geometry" />
        </mxCell>
      </root>
    </mxGraphModel>
  </diagram>
</mxfile>
